<svg width="94" height="20" viewBox="0 0 94 20" fill="none" xmlns="http://www.w3.org/2000/svg">
<path d="M19.0489 2.8336H0.878906V7.8936H10.5389L0.878906 13.8736V18.9336H19.0489V13.8736H9.38891L19.0489 7.8936V2.8336Z" fill="black"/>
<path d="M28.8947 14.7936C27.3767 14.7936 25.8357 14.4256 25.3757 12.9536H38.4627C38.4627 6.9276 34.8057 4.9036 29.1247 4.9036C23.4897 4.9036 19.7407 6.9276 19.7407 12.0336C19.7407 17.1396 23.4897 19.1636 28.8947 19.1636C34.5757 19.1636 37.5427 17.4156 38.2327 13.7586H32.8277C31.7007 14.6556 30.8957 14.7936 28.8947 14.7936ZM29.1017 8.8136C30.5737 8.8136 31.9537 8.9516 32.5747 10.1936H25.6287C26.2497 8.9516 27.6297 8.8136 29.1017 8.8136Z" fill="black"/>
<path d="M39.1523 0.5336V18.9336H44.6723V0.5336H39.1523Z" fill="black"/>
<path d="M72.8325 18.9336H79.9625L83.0905 14.9086L86.2185 18.9336H93.3485L87.0005 12.0336L93.3485 5.1336H86.2185L83.0905 9.1586L79.9625 5.1336H72.8325L79.1805 12.0336L72.8325 18.9336Z" fill="black"/>
<path fill-rule="evenodd" clip-rule="evenodd" d="M46.5 11C46.5 6.30559 50.3055 2.50001 55 2.50001H65C69.6944 2.50001 73.5 6.30559 73.5 11C73.5 15.6944 69.6944 19.5 65 19.5H55C50.3055 19.5 46.5 15.6944 46.5 11ZM55 7.50001C53.067 7.50001 51.5 9.06701 51.5 11C51.5 12.933 53.067 14.5 55 14.5H65C66.933 14.5 68.5 12.933 68.5 11C68.5 9.06701 66.933 7.50001 65 7.50001H55Z" fill="black"/>
</svg>
