<svg width="10" height="16" viewBox="0 0 10 16" fill="none" xmlns="http://www.w3.org/2000/svg">
<path d="M8.0694 0.528168C8.42133 0.183157 8.99188 0.183157 9.34381 0.528168C9.66431 0.842728 9.69342 1.33527 9.43073 1.68246L9.42682 1.68832H9.42584L9.34869 1.77621L9.34381 1.78207L2.99225 8.00766L9.34381 14.2332C9.66431 14.5478 9.69343 15.0403 9.43073 15.3875L9.42682 15.3934H9.42584L9.34869 15.4813L9.34381 15.4872C9.0237 15.801 8.52352 15.8286 8.17096 15.5721L8.1651 15.5682L8.07526 15.492L8.0694 15.4872L1.08014 8.63461C0.75927 8.32005 0.729403 7.82668 0.992249 7.47934L0.997131 7.47348L1.07526 7.38559L1.08014 7.37973L8.0694 0.528168Z" fill="black" stroke="black" stroke-width="0.2"/>
</svg>
