<svg width="20" height="23" viewBox="0 0 20 23" fill="none" xmlns="http://www.w3.org/2000/svg">
<path d="M19.0027 8.00576C18.245 7.15486 17.1028 6.66041 15.5196 6.48793V5.61404C15.5196 4.03872 14.8636 2.5209 13.7102 1.46302C12.5454 0.382148 11.03 -0.123792 9.45807 0.02569C6.75528 0.290159 4.48222 2.94635 4.48222 5.82101V6.48793C2.89899 6.66041 1.75681 7.15486 0.999123 8.00576C-0.0978255 9.24761 -0.0638992 10.9034 0.0604971 12.0533L0.85211 18.458C1.08959 20.7003 1.98298 23 6.84575 23H13.156C18.0188 23 18.9122 20.7003 19.1497 18.4695L19.9413 12.0418C20.0657 10.9034 20.0883 9.24761 19.0027 8.00576ZM9.61639 1.624C10.7473 1.52052 11.8216 1.87697 12.6584 2.64738C13.484 3.40629 13.9476 4.48717 13.9476 5.61404V6.41894H6.05413V5.82101C6.05413 3.77425 7.71652 1.80798 9.61639 1.624ZM5.95236 12.8237H5.94105C5.31907 12.8237 4.81017 12.3063 4.81017 11.6738C4.81017 11.0414 5.31907 10.524 5.94105 10.524C6.57434 10.524 7.08323 11.0414 7.08323 11.6738C7.08323 12.3063 6.57434 12.8237 5.95236 12.8237ZM13.8685 12.8237H13.8572C13.2352 12.8237 12.7263 12.3063 12.7263 11.6738C12.7263 11.0414 13.2352 10.524 13.8572 10.524C14.4905 10.524 14.9994 11.0414 14.9994 11.6738C14.9994 12.3063 14.4905 12.8237 13.8685 12.8237Z" fill="white"/>
</svg>
