<svg width="22" height="22" viewBox="0 0 22 22" fill="none" xmlns="http://www.w3.org/2000/svg">
<path d="M4.58337 9.16666H6.41671C8.25004 9.16666 9.16671 8.25 9.16671 6.41666V4.58333C9.16671 2.74999 8.25004 1.83333 6.41671 1.83333H4.58337C2.75004 1.83333 1.83337 2.74999 1.83337 4.58333V6.41666C1.83337 8.25 2.75004 9.16666 4.58337 9.16666Z" stroke="black" stroke-width="1.5" stroke-miterlimit="10" stroke-linecap="round" stroke-linejoin="round"/>
<path d="M15.5834 9.16666H17.4167C19.25 9.16666 20.1667 8.25 20.1667 6.41666V4.58333C20.1667 2.74999 19.25 1.83333 17.4167 1.83333H15.5834C13.75 1.83333 12.8334 2.74999 12.8334 4.58333V6.41666C12.8334 8.25 13.75 9.16666 15.5834 9.16666Z" stroke="black" stroke-width="1.5" stroke-miterlimit="10" stroke-linecap="round" stroke-linejoin="round"/>
<path d="M15.5834 20.1667H17.4167C19.25 20.1667 20.1667 19.25 20.1667 17.4167V15.5833C20.1667 13.75 19.25 12.8333 17.4167 12.8333H15.5834C13.75 12.8333 12.8334 13.75 12.8334 15.5833V17.4167C12.8334 19.25 13.75 20.1667 15.5834 20.1667Z" stroke="black" stroke-width="1.5" stroke-miterlimit="10" stroke-linecap="round" stroke-linejoin="round"/>
<path d="M4.58337 20.1667H6.41671C8.25004 20.1667 9.16671 19.25 9.16671 17.4167V15.5833C9.16671 13.75 8.25004 12.8333 6.41671 12.8333H4.58337C2.75004 12.8333 1.83337 13.75 1.83337 15.5833V17.4167C1.83337 19.25 2.75004 20.1667 4.58337 20.1667Z" stroke="black" stroke-width="1.5" stroke-miterlimit="10" stroke-linecap="round" stroke-linejoin="round"/>
</svg>
